<svg width="34" height="28" xmlns="http://www.w3.org/2000/svg"><path d="M31.542 12.243l-.1.513H32.9l.368-.513h-1.726zm-.167 1.064l-.419 2.004 1.793-2.004h.552l-.636 3.016h-.62l.401-1.898-1.708 1.898h-.619l.636-3.016h.62zm-3.317 0l-.419 2.004 1.793-2.004h.552l-.635 3.016h-.637l.402-1.898-1.709 1.898h-.62l.637-3.016h.636zm-3.133 0l-.233 1.153.318-.035 1.038-1.118h.787l-1.356 1.402.821 1.596h-.821l-.604-1.277h-.318l-.268 1.277h-.62l.637-3.015h.62v.017zm-1.74.835a.932.932 0 0 0-.705-.285c-.552 0-.987.39-1.105.959-.117.567.168.957.703.957.319 0 .637-.125.905-.337l.268.48c-.402.318-.821.478-1.323.478-.889 0-1.374-.602-1.172-1.56.184-.87.92-1.58 1.892-1.58.435 0 .787.142 1.005.407l-.469.48zm-4.925 1.597h.753c.268 0 .452-.125.485-.356.051-.23-.083-.337-.351-.337h-.754l-.133.693zm.267-1.26h.653c.218 0 .37-.125.402-.303.034-.194-.067-.302-.301-.302h-.636l-.118.605zm.871-1.172c.637 0 .921.32.821.816-.05.249-.202.461-.386.55l-.016.036c.251.089.385.372.318.693-.1.495-.503.903-1.239.903h-1.373l.636-3.015h1.239v.017zm-4.54 1.49c-.116.551.135.958.671.958.552 0 .971-.444 1.071-.957.118-.55-.116-.959-.669-.959-.536 0-.955.426-1.072.959zm2.38 0c-.185.87-.939 1.562-1.843 1.562-.888 0-1.358-.674-1.174-1.561.186-.871.956-1.561 1.827-1.561.921 0 1.39.674 1.19 1.56zm-4.909-1.49l-.234 1.153.318-.035 1.038-1.118h.788l-1.357 1.402.82 1.596h-.82l-.603-1.277h-.318l-.268 1.277h-.62l.637-3.015h.619v.017zm-1.825.835a.93.93 0 0 0-.703-.285c-.554 0-.989.39-1.107.959-.117.567.168.957.703.957.32 0 .637-.125.906-.337l.268.48c-.402.318-.822.478-1.324.478-.888 0-1.373-.602-1.172-1.56.184-.87.921-1.58 1.892-1.58.437 0 .788.142 1.006.407l-.47.48zm-5.327.656c-.118.55.134.957.67.957.552 0 .972-.444 1.072-.957.118-.55-.117-.959-.67-.959-.536 0-.955.426-1.072.959zm2.379 0c-.185.87-.938 1.56-1.843 1.56-.888 0-1.357-.673-1.173-1.56.184-.871.955-1.561 1.827-1.561.904 0 1.389.674 1.189 1.56zm-5.579-1.491l.52 1.366 1.072-1.366h.686l-.636 3.016h-.62l.419-1.987h-.033l-.906 1.153h-.335l-.418-1.153h-.034l-.418 1.987h-.62l.636-3.016h.687zm10.299 13.162h-.653l.151-.745h.67c.284 0 .418.141.368.373-.034.23-.233.372-.536.372zm2.664-.586l.62-1.153h.05l.134 1.153h-.804zm1.14-1.827l.534 3.017h-.703l-.084-.604h-1.222l-.335.604h-.687l1.792-3.017h.705zm5.577 0l-.234 1.135.318-.035 1.038-1.1h.787l-1.356 1.402.82 1.597h-.82l-.603-1.277h-.32l-.267 1.277h-.62l.638-3.018h.619v.02zm-3.25 0l-.251 1.171h1.24l.25-1.17h.638l-.638 3.016h-.636l.251-1.208h-1.24l-.25 1.208h-.638l.638-3.017h.636zm-5.863 1.082c.654 0 1.056.303.905.976-.117.62-.67.977-1.307.977h-1.289l.636-3.017h2.144l-.368.603H11.99l-.1.461h.653zm12.532-3.976l.201-.887h.502c.335 0 .486.142.42.445-.068.284-.269.442-.604.442h-.519zm-12.345-1.808h.871l-.37 1.79h-1.154c.235-.336.469-.939.653-1.79zm-6.583.992l.201-.992h.603c.351 0 .485.194.42.495-.069.303-.32.497-.655.497h-.569zm-2.78-1.596l-.236 1.135.32-.036 1.038-1.1h.787L3.92 20.153l.82 1.596h-.82l-.603-1.277H3l-.268 1.277h-.62l.636-3.018h.62v.02zm3.734 0c.67 0 1.04.426.906 1.081-.152.693-.755 1.101-1.408 1.101h-.569l-.168.816h-.636l.636-3.018h1.24v.02zM29.7 17.72h1.726l-.37.515H29.6l.1-.515zm-8.475 1.03l-.369.62h-.82l-.503 2.396h-.636l.502-2.396h-.972l.134-.62h2.664zm8.326 0l-.42 2.004 1.792-2.004h.553l-.636 3.016h-.636l.4-1.898-1.708 1.898h-.619l.636-3.016h.638zm-1.375 0l-.636 3.016h-.637l.637-3.016h.636zm-2.596 0l-.2.923h.534c.67 0 1.04.37.906 1.047-.134.62-.67 1.028-1.307 1.028h-1.19l.637-3.018h.62v.02zm-3.267 0l-.25 1.17H23.3l.25-1.17h.637l-.636 3.016h-.636l.25-1.207h-1.239l-.25 1.207h-.638l.637-3.016h.636zm-6.214 0l-.42 2.004 1.794-2.004h.552l-.636 3.016h-.637l.402-1.898-1.708 1.898h-.62l.637-3.016h.636zm-1.726 0l-.502 2.395h.42l-.035.178-.268 1.047h-.569l.1-.622H11.59l-.167.622h-.586l.184-1.047.034-.178h.117c.117 0 .269-.088.386-.284.233-.356.417-.958.551-1.632l.102-.499h2.16v.02zm-3.417 0l-.134.604h-1.49l-.118.566h1.34l-.117.585h-1.34l-.135.64h1.574l-.133.603H8.21l.636-3.018h2.11v.02zM19.465.612h8.593l-3.446 3.59h-3.728l-6.222 6.584L7.385 3.14 9.757.592h4.864L12.188 3.14l2.433 2.549L19.465.612zM15.611 10.5l.689-.723 4.803-5.012h6.891l-3.446 3.59h-2.027L20.475 10.5H15.61z" fill="#FFF" fill-rule="evenodd"/></svg>