<svg width="72" height="100" xmlns="http://www.w3.org/2000/svg"><g fill="none" fill-rule="evenodd"><path fill="#000" d="M-27.854 99.86h99.456V0h-99.456z"/><path fill="#FFF" d="M9.442 0L-2.99 12.483 9.442 24.965l12.432-12.482zM59.17 0L46.738 12.483 59.17 24.965l12.432-12.482z"/><path fill="#FFF" d="M34.306 0L21.874 12.483l12.432 12.482 12.432-12.482zM9.442 49.93l12.432-12.482L9.442 24.965-2.99 37.448zm49.728 0l12.432-12.482L59.17 24.965 46.738 37.448zM34.306 24.965L21.874 37.447 34.306 49.93l12.432-12.483zM9.442 74.895l12.432-12.483L9.442 49.93-2.99 62.412zm49.728 0l12.432-12.483L59.17 49.93 46.738 62.412zM34.306 49.93L21.874 62.412l12.432 12.483 12.432-12.483zM-2.99 87.377L9.442 99.86l12.432-12.483L9.442 74.895zm49.728 0L59.171 99.86l12.431-12.483-12.431-12.482z"/><path fill="#FFF" d="M21.874 87.377L34.306 99.86l12.432-12.483-12.432-12.482z"/></g></svg>