<svg width="20" height="50" xmlns="http://www.w3.org/2000/svg"><g fill="none" fill-rule="evenodd"><path fill="#FFF" d="M-5.035 8.322h8.322V0h-8.322z"/><path fill="#000" d="M3.286 8.322h8.322V0H3.286z"/><path fill="#FFF" d="M11.608 8.322h8.322V0h-8.322z"/><path fill="#000" d="M-5.035 16.643h8.322V8.322h-8.322z"/><path fill="#FFF" d="M3.286 16.643h8.322V8.322H3.286z"/><path fill="#000" d="M11.608 16.643h8.322V8.322h-8.322z"/><path fill="#FFF" d="M-5.035 24.965h8.322v-8.322h-8.322z"/><path fill="#000" d="M3.286 24.965h8.322v-8.322H3.286z"/><path fill="#FFF" d="M11.608 24.965h8.322v-8.322h-8.322z"/><path fill="#000" d="M-5.035 33.287h8.322v-8.322h-8.322z"/><path fill="#FFF" d="M3.286 33.287h8.322v-8.322H3.286z"/><path fill="#000" d="M11.608 33.287h8.322v-8.322h-8.322zM-5.035 49.93h8.322v-8.322h-8.322z"/><path fill="#FFF" d="M3.286 49.93h8.322v-8.322H3.286z"/><path fill="#000" d="M11.608 49.93h8.322v-8.322h-8.322z"/><path fill="#FFF" d="M-5.035 41.608h8.322v-8.321h-8.322z"/><path fill="#000" d="M3.286 41.608h8.322v-8.321H3.286z"/><path fill="#FFF" d="M11.608 41.608h8.322v-8.321h-8.322z"/></g></svg>