<svg width="100" height="100" xmlns="http://www.w3.org/2000/svg"><g fill="none" fill-rule="evenodd"><path fill="#000" d="M0 16.643h16.643V0H0z"/><path fill="#FFF" d="M16.643 16.643h16.644V0H16.643z"/><path fill="#000" d="M33.286 16.643H49.93V0H33.286z"/><path fill="#FFF" d="M49.93 16.643h16.643V0H49.93z"/><path fill="#000" d="M66.573 16.643h16.643V0H66.573z"/><path fill="#FFF" d="M83.216 16.643H99.86V0H83.216z"/><path fill="#000" d="M16.643 33.286h16.644V16.643H16.643z"/><path fill="#FFF" d="M33.286 33.286H49.93V16.643H33.286z"/><path fill="#000" d="M49.93 33.286h16.643V16.643H49.93z"/><path fill="#FFF" d="M66.573 33.286h16.643V16.643H66.573z"/><path fill="#000" d="M83.216 33.286H99.86V16.643H83.216z"/><path fill="#FFF" d="M0 33.287h16.643V16.644H0z"/><path fill="#000" d="M0 49.93h16.643V33.286H0z"/><path fill="#FFF" d="M16.643 49.93h16.644V33.286H16.643z"/><path fill="#000" d="M33.286 49.93H49.93V33.286H33.286z"/><path fill="#FFF" d="M49.93 49.93h16.643V33.286H49.93z"/><path fill="#000" d="M66.573 49.93h16.643V33.286H66.573z"/><path fill="#FFF" d="M83.216 49.93H99.86V33.286H83.216z"/><path fill="#000" d="M16.643 66.573h16.644V49.93H16.643z"/><path fill="#FFF" d="M33.286 66.573H49.93V49.93H33.286z"/><path fill="#000" d="M49.93 66.573h16.643V49.93H49.93z"/><path fill="#FFF" d="M66.573 66.573h16.643V49.93H66.573z"/><path fill="#000" d="M83.216 66.573H99.86V49.93H83.216z"/><path fill="#FFF" d="M0 66.573h16.643V49.93H0z"/><path fill="#000" d="M16.643 99.86h16.644V83.216H16.643z"/><path fill="#FFF" d="M33.286 99.86H49.93V83.216H33.286z"/><path fill="#000" d="M49.93 99.86h16.643V83.216H49.93z"/><path fill="#FFF" d="M66.573 99.86h16.643V83.216H66.573z"/><path fill="#000" d="M83.216 99.86H99.86V83.216H83.216z"/><path fill="#FFF" d="M0 99.86h16.643V83.216H0z"/><path fill="#000" d="M0 83.216h16.643V66.573H0z"/><path fill="#FFF" d="M16.643 83.216h16.644V66.573H16.643z"/><path fill="#000" d="M33.286 83.216H49.93V66.573H33.286z"/><path fill="#FFF" d="M49.93 83.216h16.643V66.573H49.93z"/><path fill="#000" d="M66.573 83.216h16.643V66.573H66.573z"/><path fill="#FFF" d="M83.216 83.216H99.86V66.573H83.216z"/></g></svg>