<?xml version="1.0" encoding="UTF-8"?>
<svg width="28px" height="27px" viewBox="0 0 28 27" version="1.1" xmlns="http://www.w3.org/2000/svg" xmlns:xlink="http://www.w3.org/1999/xlink">
    <!-- Generator: Sketch 50.2 (55047) - http://www.bohemiancoding.com/sketch -->
    <title>insta</title>
    <desc>Created with Sketch.</desc>
    <defs></defs>
    <g id="Pages" stroke="none" stroke-width="1" fill="none" fill-rule="evenodd">
        <g id="Desktop-HD" transform="translate(-403.000000, -41.000000)" stroke="#000000" stroke-width="2">
            <g id="social" transform="translate(309.000000, 41.000000)">
                <g id="insta" transform="translate(95.000000, 1.000000)">
                    <path d="M18.4276094,12.5 C18.4276094,15.4003788 16.0157155,17.7188552 13,17.7188552 C9.98428451,17.7188552 7.57239057,15.4003788 7.57239057,12.5 C7.57239057,9.60027357 9.98428451,7.28114478 13,7.28114478 C16.0157155,7.28114478 18.4276094,9.60027357 18.4276094,12.5 Z" id="Path"></path>
                    <path d="M21.0145438,3.61163721 C20.330665,3.61163721 19.7845118,4.13678451 19.7845118,4.79370791 C19.7845118,5.45128367 20.330665,5.97643098 21.0145438,5.97643098 C21.6977441,5.97643098 22.2438973,5.45128367 22.2438973,4.79370791 C22.2438973,4.13678451 21.6977441,3.61163721 21.0145438,3.61163721 Z" id="Path" fill="#FFFFFF"></path>
                    <path d="M19.148803,0.757575758 C22.5037441,0.757575758 25.2121212,3.36178451 25.2121212,6.58834175 L25.2121212,18.4123106 C25.2121212,21.6382155 22.5037441,24.2424242 19.148803,24.2424242 L6.85119697,24.2424242 C3.49625589,24.2424242 0.787878788,21.6382155 0.787878788,18.4123106 L0.787878788,6.58834175 C0.787878788,3.36178451 3.49625589,0.757575758 6.85119697,0.757575758 L19.148803,0.757575758 Z" id="Path"></path>
                </g>
            </g>
        </g>
    </g>
</svg>