<svg width="69" height="38" xmlns="http://www.w3.org/2000/svg"><g fill="#FFF" fill-rule="evenodd"><path d="M4.867 23.005a4.08 4.08 0 0 0 1.123.558 4 4 0 0 0 1.221.187c.414 0 .827-.06 1.226-.187a4.2 4.2 0 0 0 1.134-.558c.345-.246.656-.55.907-.89.246-.34.44-.718.565-1.107a3.74 3.74 0 0 0 .19-1.205 3.972 3.972 0 0 0-.755-2.33 3.988 3.988 0 0 0-.907-.891 3.981 3.981 0 0 0-1.13-.562 4.098 4.098 0 0 0-2.45 0 3.891 3.891 0 0 0-1.124.562 4.131 4.131 0 0 0-.903.89c-.25.344-.44.726-.569 1.119a4.02 4.02 0 0 0 0 2.413c.13.389.319.77.57 1.111.25.34.557.644.902.89M11.233 0H0l5.63 12.667z"/><path d="M16.082 32.191c0 .366-.077.725-.218 1.06a2.78 2.78 0 0 1-1.544 1.495c-.346.137-.72.207-1.09.207h-.578c-.374 0-.749-.07-1.094-.207a2.903 2.903 0 0 1-.926-.598 2.838 2.838 0 0 1-.618-.898 2.778 2.778 0 0 1-.218-1.059l-.003-6.265-6.584-.007v4.731c0 .961.2 1.921.578 2.812a7.38 7.38 0 0 0 1.646 2.385 7.674 7.674 0 0 0 2.463 1.594c.92.369 1.911.559 2.907.559h4.069c.992 0 1.987-.19 2.906-.56a7.635 7.635 0 0 0 2.464-1.593 7.38 7.38 0 0 0 1.645-2.385c.378-.89.578-1.851.578-2.812V0l-6.387.007.004 32.184zm47.152-6.819l-.003 5.446a2.8 2.8 0 0 1-.204 1.037 2.788 2.788 0 0 1-.58.874 2.669 2.669 0 0 1-.869.589 2.685 2.685 0 0 1-1.025.203h-.542c-.351 0-.699-.069-1.026-.203a2.655 2.655 0 0 1-.865-.589 2.714 2.714 0 0 1-.784-1.91L57.339.006 51.35 0v36.417h17.644L69 25.365l-5.766.007zM39.69 31.7a2.258 2.258 0 0 1-.51.725c-.22.206-.481.374-.767.488a2.448 2.448 0 0 1-.904.168l-4.064.014V18.657l3.569-.01a2.933 2.933 0 0 1 2.007.79 2.634 2.634 0 0 1 .832 1.908l.017 9.494c0 .296-.061.588-.18.86zM33.445 3.135l3.326-.01a2.937 2.937 0 0 1 2.01.79c.261.251.471.55.612.877.145.327.217.681.22 1.035l.015 7.3c0 .296-.061.588-.177.86a2.329 2.329 0 0 1-1.276 1.21 2.451 2.451 0 0 1-.905.172l-3.825.014V3.136zm12.609 16.8a5.885 5.885 0 0 0-1.345-1.891 5.371 5.371 0 0 0-1.88-1.142 6.302 6.302 0 0 0 1.598-1.048c.477-.434.904-.95 1.19-1.53a4.234 4.234 0 0 0 .433-1.867l.004-6.62c0-.763-.16-1.53-.467-2.238a5.883 5.883 0 0 0-1.33-1.891 6.189 6.189 0 0 0-1.99-1.265A6.429 6.429 0 0 0 39.918 0H27.28v36.417H40.4c.802 0 1.608-.155 2.35-.447a6.16 6.16 0 0 0 1.989-1.262 5.86 5.86 0 0 0 1.33-1.895 5.55 5.55 0 0 0 .467-2.235c0-2.792-.007-5.58 0-8.372a5.536 5.536 0 0 0-.481-2.27z"/></g></svg>