<svg width="116" height="45" xmlns="http://www.w3.org/2000/svg"><g fill="#FFF" fill-rule="evenodd"><path d="M106.471 39.888c-1.436-.755-1.658-2.89-1.626-8.079l.033-7.953-2.723-.005.611-1.472h2.112v-3.767l5.056-1.883-.002 5.524 2.318.004-.612 1.632-1.704-.003-.009 13.764c.11 1.11.482 1.763 1.01 2.238h-4.464zM56.787 5.876c.387 1.066 1.26 2.165.638 3.4-.302 1.251-1.478 2.266-2.72 2.469-1.294.118-2.537-.102-3.495-.897-.689-3.619.773-6.968 3.612-8.964l1.965 3.992z"/><path d="M61.802 16.903c-.647 2.19-7.073.753-9.088-2.84 2.645.295 5.627-2.065 5.677-4.754l3.41 7.594zm2.629-.283c.293-.131.886-.427 1.033-1.061L58.551.464c-.461-.06-.798-.102-1.385.321L64.43 16.62zm3.109-3.277C70.478 8.861 68 1.503 61.666.472l5.872 12.871zm-.65 9.651c.927-.783 2.557-.802 3.612-.299.445.224.87.522 1.148.914l-2.037 3.189c-.26-.206-.444-.299-.778-.466-1.01-.439-2.074-.182-2.685.373v9.304c-.014 1.609.263 3.077 1.092 3.842h-4.63c-.963-.746-1.204-1.94-1.296-2.984l-.038-12.372c.042-1.002-.213-1.445-.61-2.004l4.796.018c.39.28.408.764.611 1.138l.815-.653zm5.853 3.058c-.037-1.175.222-2.583-.542-3.598h4.45c.297.223.464.596.556.95.24.317.222.765.333 1.137l.038 13.184c.185.783.481 1.575 1.055 2.19l-4.76.01c-1.555-1.515-1.046-4.008-1.167-6.582l.037-7.291zm11.668 9.454c.223.82.65 1.827 1.63 1.94.575.018 1-.467 1.334-.877 1.038-2.052.889-4.289.889-6.62-.333-1.734.074-4.102-1.778-5.165-.648-.243-1.148.205-1.556.615-.722 1.1-.805 2.359-.852 3.758-.24 2.237.019 4.093.333 6.349m-4.63-9.323c.482-1.343 1.982-2.015 3.075-2.741 1.667-.616 3.5-2.145 5.371-.895 1.556 1.025 2.927 2.181 3.908 3.766.24.615.352 1.305.519 1.958 0 .877.185 1.53.166 2.405.056.951.056 1.81 0 2.741-.055 1.585-.796 3.002-2.037 4.103-1.852 1.66-4.186 3.543-6.705 2.257-2.26-1.064-4.926-3.17-4.76-6.061-.093-2.051-.185-3.823.093-5.818.111-.578.055-1.213.37-1.715m16.337 13.705c-1.436-.755-1.658-2.89-1.626-8.079l.032-7.953-2.722-.005.61-1.472h2.112v-3.767l5.057-1.883-.003 5.524 2.319.004-.612 1.632-1.704-.003-.01 13.764c.112 1.11.483 1.763 1.01 2.238h-4.463zm-46.23-15.393c-.03-1.004-.213-1.446-.611-2.004l4.796.018c.39.28.408.765.611 1.138l.816-.654c.926-.783 2.556-.801 3.611-.297.445.223.87.522 1.149.913l-2.038 3.188c-.26-.205-.444-.297-.777-.466-1.01-.437-2.075-.18-2.686.373v9.305c-.014 1.609.264 3.077 1.093 3.841h-4.63c-.964-.745-1.238-1.856-1.297-2.983l-.037-12.372zM13.604 29.39L11.851 33c-1.19 2.13-2.86 4.743-5.422 5.392-.992.35-1.868.033-2.827-.033L.511 43.45c.231.25.558.46.876.583 5.438 2.089 7.629-.159 12.985-12.34l5.058 10.85h6.736l-3.182-7.322 1.802-3.787 4.976 10.942 6.447.043-11.282-24.964-5.197 2.6 4.072 9.316-1.784 3.66-7.464-16.221-5.476 2.808 4.526 9.77zm29.208.885c-.036-.699-.537-.773-.889-.773-1.148.168-2.136 1.135-2.685 2.125-.491.886-.607 1.632-.648 2.406-.005.834-.056 1.454.277 2.088.185.41.593.597.982.709.74.149 1.426-.056 2-.448 1.353-.764 1.111-2.293 1.13-3.654l-.167-2.453zm-8.5 3.515c.129-1.808 1.11-3.505 2.777-4.42 1.648-1.024 3.575-1.435 5.279-2.33.296-.243.667-.54.685-.932.019-.485-.222-.858-.648-1.026-2.593-.56-4.742 1.082-6.631 2.704.241-1.194.426-2.498.981-3.617.278-.3.445-.71.815-.933 1.834-.913 4.132-1.174 6.187-1.026 1.686.113 3.24 1.324 3.815 2.872.297.728.278 1.548.334 2.294l.018 10.106c.019.877.426 1.697.945 2.406h-4.797c-.575-.522-.857-1.175-1.019-1.995-1.342 1.193-4.144 2.965-5.816 1.79-1.731-.784-3.315-3.412-2.926-5.893zm79.025 4.874h.09l.097.007a.466.466 0 0 1 .15.026c.059.024.1.064.121.124a.772.772 0 0 1 .027.205c.004.1.012.179.026.232h.417l-.015-.047a.299.299 0 0 1-.014-.099v-.15c0-.171-.048-.296-.147-.376a.563.563 0 0 0-.236-.096.541.541 0 0 0 .288-.113c.079-.063.118-.165.118-.307 0-.185-.074-.318-.223-.4a.805.805 0 0 0-.328-.087 14.71 14.71 0 0 0-.344-.003h-.465v1.678h.438v-.594zm.407-.364a.399.399 0 0 1-.238.063h-.17v-.487h.107a.72.72 0 0 1 .252.034c.09.036.135.1.135.191 0 .092-.028.159-.086.2zm.878-.955a1.446 1.446 0 0 0-1.064-.443c-.395 0-.74.136-1.034.41a1.451 1.451 0 0 0-.469 1.104c0 .426.145.784.434 1.076.29.291.647.438 1.07.438.409 0 .76-.143 1.052-.428.301-.294.451-.656.451-1.086 0-.418-.146-.775-.44-1.071zm-.186.193c.24.248.362.541.362.878 0 .346-.122.644-.364.89a1.18 1.18 0 0 1-.876.371 1.19 1.19 0 0 1-.877-.368 1.22 1.22 0 0 1-.365-.893c0-.339.12-.631.36-.878.242-.251.538-.377.882-.377.342 0 .635.126.878.377z"/></g></svg>