<svg width="118" height="23" xmlns="http://www.w3.org/2000/svg"><g fill="#00985D" fill-rule="evenodd"><path d="M48.35 14.996v-1.805h6.356v-2.073h-6.355V9.616c0-.146.02-.265.186-.265h6.32V7.192h-7.392c-.883 0-1.455.608-1.455 1.66v6.88c0 1.049.572 1.656 1.455 1.656h7.54v-2.155h-6.468c-.166 0-.186-.09-.186-.237m17.715-5.644V7.194h-7.38c-.883 0-1.459.607-1.459 1.658v8.517h2.412V9.618c0-.129.009-.266.177-.266h6.25zm21.478 4.535a5.3 5.3 0 0 1-.842.058H85.56V7.713h1.1c.337 0 .627.02.884.058 1.558.245 1.995 1.238 1.995 3.084 0 1.785-.457 2.786-1.995 3.032zm-4.393.058h-1.134c-.307 0-.593-.017-.841-.058-1.53-.246-1.975-1.247-1.975-3.032 0-1.846.437-2.839 1.975-3.084.257-.038.552-.058.883-.058h1.092v6.232zm4.393-8.341a9.653 9.653 0 0 0-.842-.032h-4.685c-.298 0-.575.008-.841.032-3.174.245-4.422 1.93-4.422 5.21 0 3.242 1.334 4.96 4.422 5.22.277.02.564.032.874.032h1.1v1.302h2.41v-1.302h1.121c.299 0 .597-.012.863-.033 3.108-.26 4.425-1.977 4.425-5.219 0-3.288-1.202-4.965-4.425-5.21zM41.287 5.33c-1.163 0-1.907.637-2.462 1.93l-3.244 7.667-3.303-7.666c-.544-1.294-1.3-1.93-2.46-1.93-1.36 0-2.223.802-2.223 2.549v9.489h2.5V8.213l3.337 7.713c.454 1.06 1.14 1.639 2.113 1.639 1.028 0 1.683-.579 2.129-1.639l3.345-7.79v9.233h2.488v-9.49c0-1.746-.841-2.549-2.22-2.549m58.887 10.086H99.3c-2.152 0-2.849-1.02-2.849-3.108 0-2.12.605-3.142 2.887-3.142h.794c2.282 0 2.876 1.022 2.876 3.142 0 2.088-.676 3.108-2.834 3.108m0-8.368H99.3c-3.77 0-5.267 1.668-5.267 5.23 0 3.512 1.53 5.261 5.288 5.261h.82c3.732 0 5.3-1.75 5.3-5.26 0-3.554-1.462-5.23-5.267-5.23m-31.39 6.081l1.547-3.641c.098-.213.298-.21.378 0l1.559 3.642h-3.484zm1.748-6.19h-.02c-.942 0-1.598.449-2.017 1.384l-3.253 7.22-.824 1.825h2.648L68 15.172h5.08l.963 2.197h2.577l-4.074-8.987c-.407-.923-1.08-1.431-2.013-1.443zm44.561.253v3.855h-5.258V7.193h-2.391v10.175h2.391v-4.12h5.258v4.12h2.394V7.193zM10.042 9.894a1.322 1.322 0 0 1-1.331-1.315c0-.724.596-1.314 1.331-1.314.732 0 1.329.59 1.329 1.314 0 .728-.597 1.315-1.329 1.315M12.21.326C5.98.326.93 5.32.93 11.482c0 5.483 4 10.039 9.267 10.98v-9.814c0-.459.38-.835.847-.835h1.503a.08.08 0 0 0 .08-.08V.335c-.14-.003-.278-.008-.417-.008"/><path d="M20.179 17.212a1.182 1.182 0 0 1-1.187-1.174c0-.65.531-1.177 1.187-1.177.658 0 1.19.526 1.19 1.177 0 .646-.532 1.174-1.19 1.174m-3.141 0c-.656 0-1.19-.528-1.19-1.174 0-.65.534-1.177 1.19-1.177a1.18 1.18 0 0 1 1.186 1.177c0 .646-.531 1.174-1.186 1.174m-3.144 0a1.18 1.18 0 0 1-1.187-1.174 1.18 1.18 0 0 1 1.187-1.177 1.18 1.18 0 0 1 1.186 1.177 1.18 1.18 0 0 1-1.186 1.174M13.967.46v11.802c0 .459-.38.835-.85.835h-1.5a.083.083 0 0 0-.082.08v9.444c.221.012.449.02.676.02 6.229 0 11.277-4.996 11.277-11.159 0-5.572-4.127-10.187-9.52-11.022"/></g></svg>