<svg width="37" height="20" xmlns="http://www.w3.org/2000/svg"><path d="M1.017.936h4.562c1.7 0 1.669.267 2.186 1.14 1.868 3.156 4.466 7.803 6.453 7.506V3.386c0-2.421-1.643-1.335-1.735-2.207C12.437.731 13.27 0 14.8 0h5.271c1.35 0 1.488.723 1.483 1.467l-.049 8.115c2.683-.23 4.652-4.143 6.294-7.178C28.704.73 28.851.936 30.191.936h5.066c1.143 0 1.38.445.655 1.574-1.617 2.514-3.363 5.245-5.068 7.782-.552.823-.897.949.102 2.102 1.916 2.215 3.934 4.129 5.834 6.354.43.504.283 1.246-.93 1.247-2.155.002-4.311.005-6.468.005-.862 0-1.192-.024-2.233-1.098-1.625-1.677-3.136-3.346-5.42-3.569v3.51c0 .665-.288 1.147-1.326 1.147h-4.255C10.1 19.99 3.27 8.142.251 2.333-.343 1.189.2.936 1.017.936" fill-rule="evenodd"/></svg>