<?xml version="1.0" encoding="UTF-8"?>
<svg width="37px" height="20px" viewBox="0 0 37 20" version="1.1" xmlns="http://www.w3.org/2000/svg" xmlns:xlink="http://www.w3.org/1999/xlink">
    <!-- Generator: Sketch 50.2 (55047) - http://www.bohemiancoding.com/sketch -->
    <title>Fill 6</title>
    <desc>Created with Sketch.</desc>
    <defs></defs>
    <g id="Pages" stroke="none" stroke-width="1" fill="none" fill-rule="evenodd">
        <g id="Desktop-HD" transform="translate(-346.000000, -44.000000)" fill="#000000">
            <g id="social" transform="translate(309.000000, 41.000000)">
                <path d="M38.0169186,3.93598015 L42.5794106,3.93598015 C44.2790827,3.93598015 44.2475224,4.20347395 44.7647032,5.07692308 C46.6333754,8.23225806 49.2309874,12.8789082 51.2177559,12.5816377 L51.2177559,6.38610422 C51.2177559,3.96476427 49.5750959,5.05111663 49.4834694,4.17915633 C49.4366381,3.73052109 50.2689124,3 51.7990754,3 L57.0701459,3 C58.4206191,3 58.5575498,3.72307692 58.5529685,4.46699752 C58.5371884,7.2382134 58.5203902,9.81042184 58.504101,12.5816377 C61.1872311,12.3513648 63.1556744,8.43870968 64.7983344,5.40397022 C65.7044189,3.73002481 65.8510214,3.93598015 67.1913139,3.93598015 L72.2572427,3.93598015 C73.3995201,3.93598015 73.6377491,4.38114144 72.9118634,5.50967742 C71.2951642,8.02382134 69.5486608,10.7548387 67.8444074,13.2923077 C67.291594,14.1151365 66.9469764,14.2406948 67.9457056,15.3940447 C69.8622271,17.608933 71.8795378,19.5225806 73.7802792,21.7483871 C74.2104149,22.2516129 74.0633034,22.9935484 72.850779,22.9945409 C70.6950104,22.9965261 68.5387328,23 66.3824552,23 C65.5201478,23 65.1902923,22.9761787 64.1493131,21.9022333 C62.5244694,20.2248139 61.0126317,18.5563275 58.7296041,18.3330025 L58.7296041,21.8421836 C58.7296041,22.5081886 58.4414895,22.9900744 57.4025465,22.9900744 L53.1480215,22.9900744 C47.0996526,22.9900744 40.2699131,11.1419355 37.250819,5.3325062 C36.6567737,4.18908189 37.2009334,3.93598015 38.0169186,3.93598015" id="Fill-6"></path>
            </g>
        </g>
    </g>
</svg>