<svg width="28" height="27" xmlns="http://www.w3.org/2000/svg"><g stroke="#000" stroke-width="2" fill="none" fill-rule="evenodd"><path d="M19.428 13.5c0 2.9-2.412 5.219-5.428 5.219S8.572 16.4 8.572 13.5c0-2.9 2.412-5.219 5.428-5.219s5.428 2.32 5.428 5.219z"/><path d="M22.015 4.612c-.684 0-1.23.525-1.23 1.182 0 .657.546 1.182 1.23 1.182.683 0 1.229-.525 1.229-1.182 0-.657-.546-1.182-1.23-1.182z" fill="#FFF"/><path d="M20.149 1.758c3.355 0 6.063 2.604 6.063 5.83v11.824c0 3.226-2.708 5.83-6.063 5.83H7.85c-3.355 0-6.063-2.604-6.063-5.83V7.588c0-3.226 2.708-5.83 6.063-5.83h12.3z"/></g></svg>