<svg width="161" height="162" xmlns="http://www.w3.org/2000/svg" xmlns:xlink="http://www.w3.org/1999/xlink"><defs><path id="a" d="M.035.012h2.863v4.68H.035z"/><path id="c" d="M0 .037h79.992v65.655H0z"/></defs><g fill="none" fill-rule="evenodd"><path fill="#000" d="M0 162h161V0H0z"/><path d="M57.426 110.98v4.43h-5.162v-4.43h-2.09v9.973h2.09v-4.65h5.162l-.002 3.577c0 .226.044.411.132.554.089.138.2.248.333.326.13.076.271.127.425.155.15.026.281.038.402.038h.8v-9.972h-2.09zm40.628 9.973v-9.972h-2.026l-4.053 7.385-4.132-7.385h-2.051v9.972h1.057v-7.734l4.35 7.734h.54l4.237-7.674v6.6c0 .226.047.411.136.553a.985.985 0 0 0 .328.327c.13.076.27.128.421.155.147.025.278.04.399.04h.794zm12.846-.588l-5.18-9.971h-.609l-5.306 9.972h1.212l1.648-3.102h3.763l-.52-.995h-2.715l1.745-3.278 3.422 6.599c.135.27.303.47.5.593.199.126.46.182.774.182h1.265zm10.55-9.385c-.055 0-.117.005-.19.016a.647.647 0 0 0-.207.078.51.51 0 0 0-.169.169.54.54 0 0 0-.07.284v6.428l-6.843-6.974h-1.32v9.972h1.2v-7.519l6.944 7.27c.284.27.675.249 1.056.249h.142v-9.972h-.543zm-53.683-.586h-.606l-5.309 9.971h1.21l3.926-7.375 1.697 3.28H65.96l-.525.995h3.77l1.194 2.327c.134.271.303.47.5.593.199.126.458.181.772.181h1.275l-5.18-9.972zm13.143 9.76l-3.067-3.759h-1.065v4.557h-2.08v-9.971h3.817s1.576-.025 2.608.492c1.03.517 1.467 1.244 1.467 2.165 0 .922-.55 2.01-2.523 2.556l3.973 4.76h-1.593s-.335.001-.725-.131c-.39-.133-.812-.67-.812-.67zm-4.138-8.297v3.778h.962s.955.014 1.575-.342c.622-.356 1.06-.852 1.06-1.592a1.79 1.79 0 0 0-1.143-1.655s-.383-.189-1.067-.189h-1.387z" fill="#FEFEFE"/><g transform="translate(45.503 117.433)"><mask id="b" fill="#fff"><use xlink:href="#a"/></mask><path fill="#FEFEFE" mask="url(#b)" d="M.591 4.693H.255l1.078-2.185L.035.012h.343l1.12 2.165L2.562.012h.336z"/></g><g transform="translate(42 40)"><mask id="d" fill="#fff"><use xlink:href="#c"/></mask><path d="M42.462 21.647h-2.468v9.233l2.468.007c1.644 0 2.054-.277 2.054-4.587s-.41-4.653-2.054-4.653zm.27 11.56h-2.738v11.079l2.738.005c1.784 0 1.784-1.203 1.784-5.51 0-4.311 0-5.573-1.784-5.573zM0 65.693h79.992V.037H0v65.655zM24.79 19.05l-4.176 9.506-4.178-9.506h8.354zm-4.176 10.52a2.613 2.613 0 1 1 0 5.225 2.614 2.614 0 1 1 0-5.225zM32.05 41.756c0 2.738-1.782 5.197-6.85 5.197-5.066 0-6.847-3.215-6.847-5.197v-3.967h4.517l.004 4.787a2.33 2.33 0 0 0 2.33 2.328c1.286 0 2.326-1.076 2.326-2.36V19.05h4.522v22.707zm16.984-13.543c0 1.37-1.198 3.796-2.978 3.796 1.78 0 2.978 1.538 2.978 2.702v8.242c0 1.402-1.129 3.592-4.519 3.592H35.48V19.049h9.037c1.744 0 4.519 1.436 4.519 4.48v4.684zM66.02 46.545H52.324V19.049h4.52v23.527a2.331 2.331 0 0 0 2.33 2.328 2.33 2.33 0 0 0 2.329-2.328l-.004-4.787h4.522v8.756z" fill="#FEFEFE" mask="url(#d)"/></g><path d="M126.21 103.173v-.78h.537c.258 0 .556.058.556.374 0 .361-.253.406-.564.406h-.53zm-.44 1.508h.44v-1.14h.385l.663 1.14h.506l-.728-1.16c.41-.043.711-.234.711-.716 0-.559-.35-.778-1-.778h-.977v2.654zm-1.002-1.326a1.896 1.896 0 1 1 3.791 0 1.898 1.898 0 0 1-1.895 1.907 1.9 1.9 0 0 1-1.896-1.907zm-.44 0a2.34 2.34 0 0 0 2.336 2.346 2.347 2.347 0 0 0 0-4.693 2.346 2.346 0 0 0-2.335 2.347z" fill="#FEFEFE"/></g></svg>