<svg width="69" height="44" xmlns="http://www.w3.org/2000/svg"><g fill="#FFF" fill-rule="evenodd"><path d="M0 10c0-2.88 1.58-5.423 4-7m0 14c-2.42-1.577-4-4.12-4-7"/><path d="M4 18V3c-2.42 1.69-4 4.415-4 7.5s1.58 5.81 4 7.5m6 0h4v-4zm4-13V1h-4zm4 13h3V0h-3zm8-12v12h3V9.876C29 5.929 26 6 26 6m18 6c0-4.962-3-6-3-6v6h3zm-11-.5c0 4.548 3 5.5 3 5.5V6s-3 .952-3 5.5m8 6.5h3v-3zM54 6h3v3zm-2 12h-3v-3zM49.79 7l4.972 5.216c1.346 1.413 3.365 3.54 1.456 5.784 0 0-4.698-4.866-5.55-5.784-.851-.918-2.733-3.103-.879-5.216M66 6h3v3zm-2 12h-3v-3zM61.79 7l4.972 5.216c1.346 1.413 3.365 3.54 1.456 5.784 0 0-4.698-4.866-5.55-5.784-.851-.918-2.733-3.103-.879-5.216M2.667 23L16 38h-3.77s-7.783-8.65-8.563-9.572c-.343-.406-2.833-2.723-1-5.428M2 30c-1.188.752-2 2.26-2 4 0 1.74.812 3.248 2 4v-8zm10-2h5l-2.642 3zm-3-6v5a2.552 2.552 0 0 0 2-2.5A2.552 2.552 0 0 0 9 22m14 22V22h3v16.521C26 43.332 23 44 23 44m15-18v12h3v-8.125C41 25.93 38 26 38 26m-4 0h-3v3zm-1 5c-1.672.115-3 1.63-3 3.5s1.328 3.385 3 3.5v-7zm12-2v-3h3zm10 6v3h-3zm-3.118-9H55l-6.74 12H45zM59 29v-3h3zm10 6v3h-3zm-3.118-9H69l-6.74 12H59z"/></g></svg>