<svg width="118" height="44" xmlns="http://www.w3.org/2000/svg"><g fill="none" fill-rule="evenodd"><path d="M22.93 34.98h-.077c-7.25 0-13.119-5.89-13.119-13.16 0-7.27 5.87-13.168 13.119-13.168h.076v-8.67c-.025 0-.05-.003-.076-.003C10.747-.02.935 9.83.935 21.973c0 12.148 9.812 21.993 21.918 21.993.025 0 .05-.003.076-.003V34.98z" fill="#939393"/><path d="M22.93-.019v8.673c5.695.033 10.53 3.708 12.309 8.826h-12.31v8.83h12.255c-1.818 5.034-6.614 8.64-12.255 8.669v8.982c12.07-.04 21.839-9.871 21.839-21.99 0-12.118-9.769-21.946-21.839-21.99m37.935 17.64c-.759.623-1.797 1.126-3.314 1.126-1.917 0-3.093-.729-3.903-1.661-1.034-1.18-1.452-2.6-1.452-4.298 0-1.403.276-2.721.81-3.727.918-1.712 2.66-2.768 4.577-2.768 1.747 0 2.781.761 3.024.95l-1.089 1.629a3.05 3.05 0 0 0-1.866-.678c-.896 0-1.655.452-2.072 1.042-.603.882-.672 2.39-.672 3.308 0 1.632.17 2.393.501 2.997.552 1.006 1.467 1.334 2.312 1.334.74 0 1.47-.277 2.037-.762l1.107 1.508zm5.73.918v-5.77c0-.52-.014-.881-.206-1.093a.64.64 0 0 0-.501-.204c-.24 0-.534.048-.864.223-.258.138-.57.364-.81.571v6.273h-2.28v-6.43c0-.498-.018-1.194-.308-2.075l2.018-.59c.153.24.309.59.327 1.11l.294-.21c.156-.103.276-.241.693-.467a3.42 3.42 0 0 1 1.623-.415c1.136 0 1.844.623 2.124 1.333.17.452.17.936.17 1.264v6.48h-2.28zm6.422-6.894c-.363.485-.465 1.297-.465 2.459 0 1.158.102 1.974.465 2.462.312.43.726.48 1.002.48s.69-.05 1.002-.48c.36-.488.464-1.304.464-2.462 0-1.162-.105-1.974-.464-2.459-.312-.433-.726-.488-1.002-.488s-.69.055-1.002.488m3.935-.922c.915 1.042 1.089 2.219 1.089 3.38 0 1.16-.174 2.34-1.089 3.381-.842.95-1.862 1.26-2.933 1.26-1.071 0-2.087-.31-2.937-1.26-.915-1.042-1.085-2.222-1.085-3.38 0-1.162.17-2.339 1.085-3.38.85-.951 1.866-1.264 2.937-1.264 1.07 0 2.09.313 2.933 1.263m4.541 5.65c.4.313.882.52 1.329.52.693 0 1.089-.418 1.26-.76.192-.401.293-1.163.293-2.048 0-1.176-.101-1.66-.225-1.956-.221-.59-.635-.743-1.085-.743-.708 0-1.245.36-1.572.67v4.317zm-.308-6.877c.101.276.101.448.156.834.17-.193.81-.867 2.174-.867.432 0 1.035.084 1.743.553 1.466.988 1.64 2.86 1.64 4.018 0 1.767-.38 2.823-1.227 3.69-.363.364-1.121 1.02-2.363 1.02-.33 0-1.14-.047-1.851-.48.036.342.036.45.036.535v2.961l-2.276.608V12.093c0-1.454-.069-1.938-.141-2.233l2.109-.364zm15.858 9.021v-5.853c0-.572-.014-.9-.17-1.071-.156-.175-.378-.193-.501-.193-.64 0-1.242.415-1.59.743v6.374h-2.244v-5.766c0-.608-.032-.816-.087-.954-.116-.332-.326-.415-.653-.415-.294 0-.537.069-.73.156-.272.102-.515.259-.791.521v6.458h-2.244v-6.181c0-1.457-.12-1.909-.326-2.27l2.073-.575c.065.106.12.193.17.346.051.157.102.386.138.558a2.887 2.887 0 0 1 2.156-.951c.607 0 1.245.153 1.797.78.102.12.193.222.345.43.897-1.057 1.848-1.21 2.52-1.21.932 0 1.364.273 1.727.605.327.295.657.64.657 2.167v6.301h-2.247zm-45.033 3.999c.69-.485 1.691-.955 3.227-.955.827 0 2.606.124 3.938 1.72 1.242 1.49 1.347 3.464 1.347 4.47 0 1.263-.138 3.132-1.42 4.603-.602.696-1.847 1.665-3.934 1.665-1.554 0-2.625-.5-3.42-1.126l1.107-1.559c.915.71 1.725.78 2.142.78 1.31 0 1.986-.605 2.258-1.005.363-.518.537-1.436.537-2.095v-.572h-3.488v-1.941h3.437l-.018-.383c-.018-.258-.069-1.074-.537-1.712-.584-.816-1.536-.936-2.051-.936a3.43 3.43 0 0 0-2.04.674l-1.085-1.628zm12.171 2.202v3.602h.57c.152 0 .62-.018.897-.258.24-.23.312-.59.363-.816l.188-.867c.07-.31.19-.78.538-1.09.395-.345.965-.415 1.36-.451l.829-.066.417 1.574-.381.087c-.138.033-.312.066-.45.175-.225.168-.309.43-.36.587l-.294.794c-.138.4-.468.99-1.19 1.11.842.227 1.052.762 1.241 1.265l.432 1.092c.087.208.138.452.432.656.138.11.327.175.516.211l.312.066-.414 1.595-.759-.05c-.588-.033-1.328-.088-1.76-.573-.225-.258-.418-.71-.505-1.11l-.29-1.232c-.07-.306-.225-.67-.432-.845-.193-.156-.483-.222-.846-.222h-.414v3.861H61.9v-8.662l2.28-.433zm12.496 8.089c-.308.328-.552.52-.813.659-.828.484-1.623.554-2.156.554-1.053 0-1.986-.295-2.73-1.093-.933-1.002-1.118-2.371-1.118-3.482 0-2.82 1.463-3.88 1.811-4.105.654-.434 1.638-.605 2.244-.605.86 0 1.397.258 1.655.4.312.168.588.343.864.62l-1.122 1.526c-.57-.535-1.034-.692-1.448-.692-.675 0-1.002.484-1.158.83-.138.295-.294.886-.294 2.2 0 .536.033 1.596.45 2.131a1.36 1.36 0 0 0 1.035.503c.33 0 .624-.106.845-.208.33-.156.552-.364.74-.52l.139-.124 1.056 1.406zm5.522 1.007v-5.77c0-.521-.015-.885-.207-1.093a.628.628 0 0 0-.501-.204c-.24 0-.534.047-.864.222a5.222 5.222 0 0 0-.81.572v6.273h-2.28v-6.43a6.29 6.29 0 0 0-.308-2.08l2.018-.586c.156.24.309.587.327 1.107l.294-.207c.156-.102.28-.24.69-.466.174-.106.813-.416 1.626-.416 1.14 0 1.844.623 2.124 1.333.17.449.17.937.17 1.264v6.48h-2.28zm6.005-2.167c.399.31.882.52 1.332.52a1.36 1.36 0 0 0 1.256-.764c.192-.4.294-1.162.294-2.044 0-1.176-.102-1.664-.225-1.956-.225-.59-.635-.746-1.085-.746-.708 0-1.246.36-1.572.674v4.316zm-.309-6.877c.102.277.102.448.156.83.17-.19.81-.863 2.175-.863.432 0 1.034.084 1.742.554 1.467.983 1.64 2.855 1.64 4.014 0 1.77-.38 2.826-1.226 3.693-.363.365-1.122 1.02-2.363 1.02-.33 0-1.14-.05-1.848-.48.033.342.033.447.033.535v2.961l-2.276.609V27.367c0-1.453-.073-1.938-.142-2.233l2.11-.364zm12.836 3.533c0-.47-.026-1.005-.447-1.42-.356-.328-.852-.452-1.323-.452-.564 0-1.015.157-1.317.434-.496.433-.565 1.074-.565 1.511v.03h3.651v-.103zm-3.444 1.8v.193c0 .641.225 1.195.57 1.523.396.382.897.47 1.329.47.345 0 1.209-.055 2.21-.886l.897 1.384a5.204 5.204 0 0 1-3.329 1.232c-1.212 0-2.261-.434-2.99-1.177-.654-.692-1.192-1.767-1.192-3.482 0-1.68.45-2.667 1.108-3.41.864-.972 1.811-1.213 2.78-1.213 1.19 0 2.019.416 2.552.947 1.09 1.111 1.173 2.878 1.173 3.883v.536h-5.108zm13.124 2.704c-.312.328-.551.52-.813.659-.827.484-1.622.554-2.156.554-1.053 0-1.986-.295-2.726-1.093-.933-1.002-1.126-2.371-1.126-3.482 0-2.82 1.47-3.88 1.815-4.105.654-.434 1.638-.605 2.244-.605.864 0 1.397.258 1.655.4.312.168.588.343.864.62l-1.122 1.526c-.57-.535-1.034-.692-1.448-.692-.675 0-1.006.484-1.158.83-.138.295-.294.886-.294 2.2 0 .536.033 1.596.446 2.131.211.259.589.503 1.039.503.326 0 .62-.106.845-.208.327-.156.552-.364.741-.52l.138-.124 1.056 1.406zm7.372 0c-.312.328-.552.52-.813.659-.828.484-1.623.554-2.156.554-1.053 0-1.986-.295-2.726-1.093-.933-1.002-1.126-2.371-1.126-3.482 0-2.82 1.467-3.88 1.815-4.105.654-.434 1.638-.605 2.244-.605.864 0 1.4.258 1.655.4.312.168.588.343.864.62l-1.118 1.526c-.574-.535-1.038-.692-1.452-.692-.672 0-1.002.484-1.158.83-.138.295-.294.886-.294 2.2 0 .536.036 1.596.45 2.131a1.36 1.36 0 0 0 1.035.503c.33 0 .62-.106.845-.208.33-.156.556-.364.745-.52l.134-.124 1.056 1.406z" fill="#FFF"/></g></svg>